{
  "accessors": [
    {
      "bufferView": 2,
      "componentType": 5126,
      "count": 759,
      "max": [
        0.10989300161600113,
        0.06162099912762642,
        0.24095399677753448
      ],
      "min": [
        -0.10989300161600113,
        -0.2483450025320053,
        -0.016316000372171402
      ],
      "type": "VEC3"
    },
    {
      "bufferView": 2,
      "byteOffset": 9108,
      "componentType": 5126,
      "count": 759,
      "max": [
        0.9987099170684814,
        0.9990049004554749,
        0.9999825954437256
      ],
      "min": [
        -0.9987099170684814,
        -0.9978458881378174,
        -0.996367335319519
      ],
      "type": "VEC3"
    },
    {
      "bufferView": 3,
      "componentType": 5126,
      "count": 759,
      "max": [
        0.9999995231628418,
        0.9999826550483704,
        0.9872586727142334,
        1.0
      ],
      "min": [
        -0.9999256730079651,
        -0.9481068849563599,
        -0.9990049600601196,
        -1.0
      ],
      "type": "VEC4"
    },
    {
      "bufferView": 1,
      "componentType": 5126,
      "count": 759,
      "max": [
        0.8925780057907104,
        0.9920690059661865
      ],
      "min": [
        0.011478000320494175,
        0.6718400120735168
      ],
      "type": "VEC2"
    },
    {
      "bufferView": 0,
      "componentType": 5125,
      "count": 3867,
      "type": "SCALAR"
    },
    {
      "bufferView": 2,
      "byteOffset": 18216,
      "componentType": 5126,
      "count": 22,
      "max": [
        0.0,
        -0.11481200158596039,
        0.2364639937877655
      ],
      "min": [
        -0.037856001406908035,
        -0.2272839993238449,
        0.07374399900436401
      ],
      "type": "VEC3"
    },
    {
      "bufferView": 2,
      "byteOffset": 18480,
      "componentType": 5126,
      "count": 22,
      "max": [
        -0.0,
        -0.16549867391586304,
        0.9859746098518372
      ],
      "min": [
        -0.5826824903488159,
        -0.9978458881378174,
        -0.26858752965927124
      ],
      "type": "VEC3"
    },
    {
      "bufferView": 3,
      "byteOffset": 12144,
      "componentType": 5126,
      "count": 22,
      "max": [
        -0.41634365916252136,
        0.909203827381134,
        0.2351936399936676,
        -1.0
      ],
      "min": [
        -0.9999995231628418,
        6.86705025145784e-05,
        -0.0920814797282219,
        -1.0
      ],
      "type": "VEC4"
    },
    {
      "bufferView": 1,
      "byteOffset": 6072,
      "componentType": 5126,
      "count": 22,
      "max": [
        0.07849100232124329,
        0.9847829937934875
      ],
      "min": [
        0.011528000235557556,
        0.848475992679596
      ],
      "type": "VEC2"
    },
    {
      "bufferView": 0,
      "byteOffset": 15468,
      "componentType": 5125,
      "count": 60,
      "type": "SCALAR"
    }
  ],
  "asset": {
    "extras": {
      "author": "Venom1462 (https://sketchfab.com/Venom1462)",
      "license": "CC-BY-4.0 (http://creativecommons.org/licenses/by/4.0/)",
      "source": "https://sketchfab.com/3d-models/daredevil-helmet-3cf84b8108db49e1af0a0c8777c1d7a1",
      "title": "Daredevil Helmet"
    },
    "generator": "Sketchfab-11.90.0",
    "version": "2.0"
  },
  "bufferViews": [
    {
      "buffer": 0,
      "byteLength": 15708,
      "name": "floatBufferViews",
      "target": 34963
    },
    {
      "buffer": 0,
      "byteLength": 6248,
      "byteOffset": 15708,
      "byteStride": 8,
      "name": "floatBufferViews",
      "target": 34962
    },
    {
      "buffer": 0,
      "byteLength": 18744,
      "byteOffset": 21956,
      "byteStride": 12,
      "name": "floatBufferViews",
      "target": 34962
    },
    {
      "buffer": 0,
      "byteLength": 12496,
      "byteOffset": 40700,
      "byteStride": 16,
      "name": "floatBufferViews",
      "target": 34962
    }
  ],
  "buffers": [
    {
      "byteLength": 53196,
      "uri": "scene.bin"
    }
  ],
  "images": [
    {
      "uri": "textures/31_daredevilnetflixfinal_0.2_0_0_baseColor.png"
    },
    {
      "uri": "textures/31_daredevilnetflixfinal_0.2_0_0_emissive.png"
    },
    {
      "uri": "textures/31_daredevilnetflixfinal_0.2_0_0_normal.png"
    }
  ],
  "materials": [
    {
      "doubleSided": true,
      "emissiveFactor": [
        1.0,
        1.0,
        1.0
      ],
      "emissiveTexture": {
        "index": 1
      },
      "name": "31_daredevilnetflixfinal_0.2_0_0",
      "normalTexture": {
        "index": 2
      },
      "pbrMetallicRoughness": {
        "baseColorTexture": {
          "index": 0
        },
        "metallicFactor": 0.55,
        "roughnessFactor": 0.5
      }
    },
    {
      "doubleSided": true,
      "name": "31_skindaredevilnetflixfinal_0.2_0_0",
      "normalTexture": {
        "index": 2
      },
      "pbrMetallicRoughness": {
        "baseColorTexture": {
          "index": 0
        },
        "metallicFactor": 0.55,
        "roughnessFactor": 0.5
      }
    }
  ],
  "meshes": [
    {
      "name": "Object_0",
      "primitives": [
        {
          "attributes": {
            "NORMAL": 1,
            "POSITION": 0,
            "TANGENT": 2,
            "TEXCOORD_0": 3
          },
          "indices": 4,
          "material": 0,
          "mode": 4
        }
      ]
    },
    {
      "name": "Object_1",
      "primitives": [
        {
          "attributes": {
            "NORMAL": 6,
            "POSITION": 5,
            "TANGENT": 7,
            "TEXCOORD_0": 8
          },
          "indices": 9,
          "material": 1,
          "mode": 4
        }
      ]
    }
  ],
  "nodes": [
    {
      "children": [
        1
      ],
      "matrix": [
        1.0,
        0.0,
        0.0,
        0.0,
        0.0,
        2.220446049250313e-16,
        -1.0,
        0.0,
        0.0,
        1.0,
        2.220446049250313e-16,
        0.0,
        0.0,
        0.0,
        0.0,
        1.0
      ],
      "name": "Sketchfab_model"
    },
    {
      "children": [
        2,
        3
      ],
      "name": "Daredevil Helmet.obj.cleaner.materialmerger.gles"
    },
    {
      "mesh": 0,
      "name": "Object_2"
    },
    {
      "mesh": 1,
      "name": "Object_3"
    }
  ],
  "samplers": [
    {
      "magFilter": 9729,
      "minFilter": 9987,
      "wrapS": 10497,
      "wrapT": 10497
    }
  ],
  "scene": 0,
  "scenes": [
    {
      "name": "Sketchfab_Scene",
      "nodes": [
        0
      ]
    }
  ],
  "textures": [
    {
      "sampler": 0,
      "source": 0
    },
    {
      "sampler": 0,
      "source": 1
    },
    {
      "sampler": 0,
      "source": 2
    }
  ]
}
